{"title":"Dilwale {2015} 720p HDRip x264 5.1 AC3 {Team DUS} - jnmjy","uid":13379273,"size":3321477726,"categoryP":"video","categoryS":"movies","magnet":"?xt=urn:btih:3adb5da577d8e9b33b1442d3414a6f9bef64e5db&amp;dn=Dilwale+%7B2015%7D+720p+HDRip+x264+5.1+AC3+%7BTeam+DUS%7D+-+jnmjy&amp;tr=udp%3A%2F%2Ftracker.leechers-paradise.org%3A6969&amp;tr=udp%3A%2F%2Fzer0day.ch%3A1337&amp;tr=udp%3A%2F%2Fopen.demonii.com%3A1337&amp;tr=udp%3A%2F%2Ftracker.coppersurfer.tk%3A6969&amp;tr=udp%3A%2F%2Fexodus.desync.com%3A6969","seeders":2,"leechers":0,"uploader":"makintos13","files":1,"time":1454255956,"description":"Screens:\r\n \nhttp://imgmak.com/KDN\r\n \nhttp://imgmak.com/KDQ\r\n \nhttp://imgmak.com/KDS\r\n \nhttp://imgmak.com/KDZ\r\n \nhttp://imgmak.com/KDc\r\n \nhttp://imgmak.com/KDn\r\n \nhttp://imgmak.com/KDr\r\n \nhttp://imgmak.com/KDB\r\n\r\n\r\nYear.............: 2015\r\nSource: 1080p @ M2Tv (Thanks for the superseed!)\r\nRipper...........: jnmjy\r\n\r\nGeneral\r\nFormat                                   : Matroska\r\nFormat version                           : Version 2\r\nFile size                                : 3.09 GiB\r\nDuration                                 : 2h 33mn\r\nOverall bit rate                         : 2 885 Kbps\r\nEncoded date                             : UTC 2016-01-30 13:20:10\r\nWriting application                      : mkvmerge v8.5.2 ('Crosses') 32bit\r\nWriting library                          : libebml v1.3.3 + libmatroska v1.4.4\r\nDURATION                                 : 02:33:31.552000000\r\nNUMBER_OF_FRAMES                         : 287861\r\nNUMBER_OF_BYTES                          : 442154496\r\n_STATISTICS_WRITING_APP                  : mkvmerge v8.5.2 ('Crosses') 32bit\r\n_STATISTICS_WRITING_DATE_UTC             : 2016-01-30 13:20:10\r\n_STATISTICS_TAGS                         : BPS DURATION NUMBER_OF_FRAMES NUMBER_OF_BYTES\r\n\r\nVideo\r\nID                                       : 1\r\nFormat                                   : AVC\r\nFormat/Info                              : Advanced Video Codec\r\nFormat profile                           :   \r\nFormat settings, CABAC                   : Yes\r\nFormat settings, ReFrames                : 4 frames\r\nCodec ID                                 : V_MPEG4/ISO/AVC\r\nDuration                                 : 2h 33mn\r\nBit rate                                 : 2 499 Kbps\r\nWidth                                    : 1 280 pixels\r\nHeight                                   : 544 pixels\r\nDisplay aspect ratio                     : 2.35:1\r\nFrame rate mode                          : Constant\r\nFrame rate                               : 24.000 fps\r\nColor space                              : YUV\r\nChroma subsampling                       : 4:2:0\r\nBit depth                                : 8 bits\r\nScan type                                : Progressive\r\nBits/(Pixel*Frame)                       : 0.150\r\nStream size                              : 2.62 GiB (85%)\r\nWriting library                          : x264 core 148 r2638 7599210\r\nDefault                                  : Yes\r\nForced                                   : No\r\n\r\nAudio\r\nID                                       : 2\r\nFormat                                   : AC-3\r\nFormat/Info                              : Audio Coding 3\r\nMode extension                           : CM (complete main)\r\nFormat settings, Endianness              : Big\r\nCodec ID                                 : A_AC3\r\nDuration                                 : 2h 33mn\r\nBit rate mode                            : Constant\r\nBit rate                                 : 384 Kbps\r\nChannel(s)                               : 6 channels\r\nChannel positions                        : Front: L C R, Side: L R, LFE\r\nSampling rate                            : 48.0 KHz\r\nCompression mode                         : Lossy\r\nStream size                              : 422 MiB (13%)\r\nLanguage                                 : Hindi\r\nDefault                                  : Yes\r\nForced                                   : No","torrent":{"xt":"urn:btih:3adb5da577d8e9b33b1442d3414a6f9bef64e5db","amp;dn":"Dilwale+%7B2015%7D+720p+HDRip+x264+5.1+AC3+%7BTeam+DUS%7D+-+jnmjy","amp;tr":["udp%3A%2F%2Ftracker.leechers-paradise.org%3A6969","udp%3A%2F%2Fzer0day.ch%3A1337","udp%3A%2F%2Fopen.demonii.com%3A1337","udp%3A%2F%2Ftracker.coppersurfer.tk%3A6969","udp%3A%2F%2Fexodus.desync.com%3A6969"],"infoHash":"3adb5da577d8e9b33b1442d3414a6f9bef64e5db","infoHashBuffer":{"type":"Buffer","data":[58,219,93,165,119,216,233,179,59,20,66,211,65,74,111,155,239,100,229,219]},"announce":[],"urlList":[]}}